# xmcd
#
# Track frame offsets:
#	150
#	17175
#	35748
#	52502
#	77216
#	93456
#	112710
#	129961
#	151918
#	166171
#
# Disc length: 2464 seconds
#
# Revision: 1
# Processed by: cddbd v1.5.1PL2 Copyright (c) Steve Scherf et al.
# Submitted via: audiograbber 1.83.01
#
DISCID=68099e0a
DTITLE=FAZLA - Made in BiH
DYEAR=2004
DGENRE=Pop
TTITLE0=Vedro jutro
TTITLE1=Prava
TTITLE2=Psst SSS
TTITLE3=Blues
TTITLE4=A najvise volim tebe
TTITLE5=Hukni u prozor
TTITLE6=Ja znam
TTITLE7=Pero galeba
TTITLE8=Zazmiri
TTITLE9=Bascarsijska
EXTD=
EXTT0=
EXTT1=
EXTT2=
EXTT3=
EXTT4=
EXTT5=
EXTT6=
EXTT7=
EXTT8=
EXTT9=
PLAYORDER=
